<?xml version="1.0" encoding="utf-8"?>
<svg id="svg2" viewBox="0 0 500 670" xmlns="http://www.w3.org/2000/svg" xmlns:bx="https://boxy-svg.com" width="500px" height="670px"><desc>Source: openclipart.org/detail/209545</desc><defs><bx:export><bx:file format="svg" href="#object-52" path="Untitled 53.svg"/><bx:file format="svg" href="#object-53" path="Untitled 54.svg"/><bx:file format="svg" href="#object-54" path="Untitled 55.svg"/><bx:file format="svg" href="#object-55" path="Untitled 56.svg"/><bx:file format="svg" href="#object-56" path="Untitled 57.svg"/><bx:file format="svg" href="#object-0" width="316.764678314787" height="326"/><bx:file format="svg" href="#object-1" path="Untitled 2.svg"/><bx:file format="svg" path="Untitled 3.svg"/></bx:export></defs><path fill="#000000"/><path fill="#000000"/><path fill="#000000"/><path fill="#000000"/><path fill="#000000"/><path fill="#000000"/><path fill="#000000"/><path fill="#000000"/><path fill="#000000"/><path fill="#000000"/><path fill="#000000"/><path fill="#000000"/><path fill="#000000"/><path fill="#000000"/><path fill="#000000"/><path fill="#000000"/><path fill="#000000"/><path fill="#000000"/><path fill="#000000"/><path fill="#000000"/><path fill="#000000"/><path fill="#000000"/><path fill="#000000"/><path fill="#000000"/><path fill="#000000"/><path fill="#000000"/><path fill="#000000"/><path fill="#000000"/><path fill="#000000"/><path fill="#000000"/><path fill="#000000"/><path fill="#000000"/><path fill="#000000"/><path fill="#000000"/><path fill="#000000"/><path fill="#000000"/><path fill="#000000"/><path fill="#000000"/><path fill="#000000"/><path fill="#000000"/><path fill="#000000"/><path fill="#000000"/><path fill="#000000"/><path fill="#000000"/><path fill="#000000"/><path fill="#000000"/><path fill="#000000"/><path fill="#000000"/><path fill="#000000"/><path fill="#000000"/><path fill="#000000"/><path fill="#000000"/><path fill="#000000"/><path fill="#000000"/><path fill="#000000"/><path fill="#000000"/><path fill="#000000"/><path fill="#000000"/><path fill="#000000"/><path fill="#000000"/><path fill="#000000"/><path fill="#000000"/><path fill="#000000"/><path fill="#000000"/><path fill="#000000"/><path fill="#000000"/><path fill="#000000"/><path fill="#000000"/><path fill="#000000"/><path fill="#000000"/><path fill="#000000"/><path fill="#000000"/><path fill="#000000"/><path fill="#000000"/><path fill="#000000"/><path fill="#000000"/><path fill="#000000"/><path fill="#000000"/><path fill="#000000"/><path fill="#000000"/><path fill="#000000"/><path fill="#000000"/><path fill="#000000"/><path fill="#000000"/><path fill="#000000"/><path fill="#000000"/><path fill="#000000"/><path fill="#000000"/><path fill="#000000"/><path fill="#000000"/><path fill="#000000"/><path fill="#000000"/><path fill="#000000"/><path fill="#000000"/><path fill="#000000"/><path fill="#000000"/><path fill="#000000"/><path fill="#000000"/><path fill="#000000"/><path fill="#000000"/><path fill="#000000"/><path fill="#000000"/><path fill="#000000"/><path fill="#000000"/><path fill="#000000"/><path fill="#000000"/><path fill="#000000"/><path fill="#000000"/><path fill="#000000"/><path fill="#000000"/><path fill="#000000"/><path fill="#000000"/><path fill="#000000"/><path fill="#000000"/><path fill="#000000"/><path fill="#000000"/><path fill="#000000"/><path fill="#000000"/><path fill="#000000"/><path fill="#000000"/><path fill="#000000"/><path fill="#000000"/><path fill="#000000"/><path fill="#000000"/><path fill="#000000"/><path fill="#000000"/><path fill="#000000"/><path fill="#000000"/><path fill="#000000"/><path fill="#000000"/><path fill="#000000"/><path fill="#000000"/><path fill="#000000"/><path fill="#000000"/><path fill="#000000"/><path fill="#000000"/><path fill="#000000"/><path fill="#000000"/><path fill="#000000"/><path fill="#000000"/><path fill="#000000"/><path fill="#000000"/><path fill="#000000"/><path fill="#000000"/><path fill="#000000"/><path fill="#000000"/><path fill="#000000"/><path fill="#000000"/><path fill="#000000"/><path fill="#000000"/><path fill="#000000"/><path fill="#000000"/><path fill="#000000"/><path fill="#000000"/><path fill="#000000"/><path fill="#000000"/><path fill="#000000"/><path fill="#000000"/><path fill="#000000"/><path fill="#000000"/><path fill="#000000"/><path fill="#000000"/><path fill="#000000"/><path fill="#000000"/><path fill="#000000"/><path fill="#000000"/><path fill="#000000"/><path fill="#000000"/><path fill="#000000"/><path fill="#000000"/><path fill="#000000"/><path fill="#000000"/><path fill="#000000"/><path fill="#000000"/><path fill="#000000"/><path fill="#000000"/><path fill="#000000"/><path fill="#000000"/><path fill="#000000"/><path fill="#000000"/><path fill="#000000"/><path fill="#000000"/><path fill="#000000"/><path fill="#000000"/><path fill="#000000"/><path fill="#000000"/><path fill="#000000"/><path fill="#000000"/><path fill="#000000"/><path fill="#000000"/><path fill="#000000"/><path fill="#000000"/><path fill="#000000"/><path fill="#000000"/><path fill="#000000"/><path fill="#000000"/><path fill="#000000"/><path fill="#000000"/><path fill="#000000"/><path fill="#000000"/><path fill="#000000"/><path fill="#000000"/><path fill="#000000"/><path fill="#000000"/><path fill="#000000"/><path fill="#000000"/><path fill="#000000"/><path fill="#000000"/><path fill="#000000"/><path fill="#000000"/><path fill="#000000"/><path fill="#000000"/><path fill="#000000"/><path fill="#000000"/><path fill="#000000"/><path fill="#000000"/><path fill="#000000"/><path fill="#000000"/><path fill="#000000"/><path fill="#000000"/><path fill="#000000"/><path fill="#000000"/><path fill="#000000"/><path fill="#000000"/><path fill="#000000"/><path fill="#000000"/><g style="" transform="matrix(1.150676, 0, 0.04438, 1.333868, -33.868851, 37.936672)" id="object-1"><rect x="73.602" y="53.262" width="338.352" height="332.284" style="stroke: rgb(0, 0, 0); fill: rgba(255, 255, 255, 0); stroke-width: 0px;"/><ellipse style="stroke: rgb(0, 0, 0); fill: rgb(255, 254, 254); stroke-linecap: round; stroke-linejoin: round; stroke-width: 12.4172px;" cx="251.62" cy="225.055" rx="162.246" ry="152.894" id="object-52" transform="matrix(0.996762, -0.080408, -0.005414, 1.003685, -9.473968, 15.366533)"/><path d="M 340.164 129.846 C 344.742 131.909 347.171 135.279 348.788 139.828 C 351.284 148.274 349.522 157.711 345.084 165.841 C 342.52 170.348 339.092 174.589 334.119 176.82 C 330.936 177.737 326.982 178.34 324.051 177.053 C 319.612 174.049 316.778 170.15 315.991 164.78 C 315.874 163.644 315.778 162.51 315.712 161.366 C 316.187 161.104 316.662 160.841 317.152 160.57 C 317.784 160.22 318.416 159.869 319.048 159.518 C 319.516 159.26 319.516 159.26 319.994 158.996 C 321.774 158.006 323.501 156.974 325.191 155.834 C 324.242 155.145 323.292 154.457 322.343 153.769 C 322.076 153.575 321.808 153.381 321.534 153.181 C 320.138 152.172 318.733 151.189 317.264 150.275 C 317.918 143.417 322.004 137.586 327.305 132.778 C 331.246 129.967 335.601 128.621 340.164 129.846 Z" fill="#020202" style="stroke-linecap: round; stroke-linejoin: round; stroke-width: 12.4172px;" id="object-53"/><path d="M 229.672 110.022 C 230.271 110.316 230.86 110.625 231.438 110.951 C 231.868 111.182 232.298 111.414 232.74 111.652 C 236.729 115.07 238.547 119.403 238.732 124.667 C 238.747 125.058 238.763 125.448 238.78 125.851 C 239.025 134.578 237.181 143.058 230.978 150.263 C 227.303 154.255 224.022 157.382 218.503 158.004 C 214.488 158.186 212.158 157.386 209.444 154.802 C 206.14 151.144 204.045 146.392 204.419 141.261 C 212.117 136.826 212.117 136.826 214.391 136.642 C 211.996 133.839 209.206 132.04 205.972 130.17 C 207.167 123.876 210.215 117.572 215.512 113.19 C 219.922 110.071 224.674 108.173 229.672 110.022 Z" fill="#020202" style="stroke-linecap: round; stroke-linejoin: round; stroke-width: 12.4172px;" id="object-54"/><path d="M 250.255 168.181 C 252.396 168.64 254.55 169.051 256.704 169.464 C 257.14 169.548 257.576 169.633 258.026 169.72 C 260.137 170.128 262.25 170.527 264.37 170.907 C 275.073 172.856 285.548 175.589 295.881 178.61 C 296.437 178.771 296.993 178.932 297.565 179.098 C 302.983 180.719 308.637 182.42 311.812 187.099 C 313.019 192.666 311.183 198.727 307.907 203.774 C 306.26 206.015 304.445 208.078 302.519 210.109 C 302.26 210.394 302 210.679 301.733 210.973 C 293.703 219.037 281.475 221.03 271.014 221.781 C 264.859 222.162 259.116 221.493 253.229 220.283 C 252.471 220.131 252.471 220.131 251.698 219.976 C 237.282 216.823 225.038 209.444 217.545 197.416 C 217.34 197.105 217.137 196.794 216.928 196.472 C 213.575 190.929 212.387 183.45 214.151 176.845 C 215.229 173.947 216.48 171.059 218.693 168.717 C 219.056 168.327 219.056 168.327 219.425 167.929 C 226.802 161.583 242.446 166.466 250.255 168.181 Z" fill="#030303" style="stroke-linecap: round; stroke-linejoin: round; stroke-width: 12.4172px;" id="object-55"/><path d="M 233.195 171.42 C 241.972 172.551 247.193 175.42 252.138 182.286 C 254.498 185.683 256.461 189.289 258.133 193.083 C 258.727 194.578 258.727 194.578 259.828 195.434 C 260.326 194.293 260.825 193.151 261.339 191.976 C 263.855 191.471 265.287 191.958 267.298 193.121 C 274.107 197.769 277.996 206.82 279.119 214.856 C 266.277 216.086 266.277 216.086 261.213 215.348 C 260.809 215.306 260.405 215.264 259.989 215.221 C 257.972 215.001 256.182 214.633 254.312 213.947 C 252.925 213.494 251.499 213.186 250.068 212.85 C 238.738 209.896 228.293 203.144 222.804 193.244 C 220.297 188.334 218.943 183.023 220.499 177.251 C 223.206 170.841 227.009 170.888 233.195 171.42 Z" fill="#FBFBFB" style="stroke-linecap: round; stroke-linejoin: round; stroke-width: 12.4172px;" id="object-56"/></g><g id="object-0" style="" transform="matrix(0.649403, -0.052387, -0.003386, 0.627759, 77.47213, 92.919861)"/><ellipse style="fill: rgb(216, 216, 216); stroke: rgb(0, 0, 0); stroke-width: 8px;"/></svg>