<?xml version="1.0" encoding="UTF-8"?>
<!-- Generator: visioncortex VTracer 0.6.4 -->
<svg version="1.1" xmlns="http://www.w3.org/2000/svg" width="2000" height="2000">
<path d="M0 0 C0 0.66 0 1.32 0 2 C0.919988 2.150337 1.839976 2.300674 2.787842 2.455566 C20.47343 5.376487 37.964942 8.269204 55 14 C55.906372 14.301641 56.812744 14.603281 57.746582 14.914062 C69.294789 18.806316 80.291206 23.267945 91.057129 28.973633 C94.539155 30.813095 98.049642 32.595348 101.5625 34.375 C102.205581 34.708867 102.848662 35.042734 103.51123 35.386719 C107.593003 37.46122 111.598654 38.781818 116 40 C121.684211 43.368421 121.684211 43.368421 123 46 C125.016698 47.133505 125.016698 47.133505 127 48 C127 48.66 127 49.32 127 50 C127.732832 50.265708 128.465664 50.531416 129.220703 50.805176 C131.977568 51.990356 134.069833 53.327428 136.46875 55.117188 C137.287305 55.724336 138.105859 56.331484 138.949219 56.957031 C139.790977 57.589961 140.632734 58.222891 141.5 58.875 C142.341758 59.500195 143.183516 60.125391 144.050781 60.769531 C147.386143 63.253982 150.689622 65.745524 153.90625 68.382812 C155.99881 70.182738 155.99881 70.182738 159 71 C159.33 71.99 159.66 72.98 160 74 C161.329592 74.347957 162.663603 74.679168 164 75 C165.851562 76.488281 165.851562 76.488281 167.625 78.3125 C168.215391 78.906758 168.805781 79.501016 169.414062 80.113281 C171 82 171 82 171.890625 83.892822 C173.113982 86.2165 174.485418 87.743997 176.335938 89.601562 C176.988203 90.256406 177.640469 90.91125 178.3125 91.585938 C178.993125 92.258828 179.67375 92.931719 180.375 93.625 C181.047891 94.305625 181.720781 94.98625 182.414062 95.6875 C183.068906 96.339766 183.72375 96.992031 184.398438 97.664062 C184.993179 98.256548 185.58792 98.849033 186.200684 99.459473 C187.955808 101.090404 187.955808 101.090404 190.193848 102.083496 C190.789878 102.385942 191.385908 102.688389 192 103 C192.333333 104.333333 192.666667 105.666667 193 107 C193.583945 107.269414 194.167891 107.538828 194.769531 107.816406 C197.68705 109.364582 199.158591 111.345217 201.1875 113.9375 C202.229707 115.25041 202.229707 115.25041 203.292969 116.589844 C205 119 205 119 206 122 C206.825 122.78375 207.65 123.5675 208.5 124.375 C211.269219 127.28268 211.281732 128.229093 212 132 C213.223757 133.899501 214.549012 135.670267 215.941406 137.449219 C217 139 217 139 217 141 C217.66 141.33 218.32 141.66 219 142 C219.666667 143.333333 220.333333 144.666667 221 146 C221.980204 147.019412 222.97803 148.022464 224 149 C224.33 149.66 224.66 150.32 225 151 C225.430547 151.559453 225.861094 152.118906 226.304688 152.695312 C228.464469 155.631422 230.299705 158.725865 232.125 161.875 C232.484648 162.474414 232.844297 163.073828 233.214844 163.691406 C235.396514 167.458261 236.562952 170.669248 237 175 C237.66 175 238.32 175 239 175 C239.154687 176.515938 239.154687 176.515938 239.3125 178.0625 C240.050274 182.287931 241.030042 185.211619 243 189 C243.99 189.33 244.98 189.66 246 190 C247.199259 192.672975 248.193938 195.234886 249.125 198 C249.521387 199.096348 249.521387 199.096348 249.925781 200.214844 C251.207035 203.915519 252.131354 207.37123 252.472656 211.277344 C253.000088 217.224463 254.724979 222.825607 256.3125 228.5625 C258.722251 237.572231 260.841751 246.548273 262.375 255.75 C262.53009 256.663381 262.685181 257.576763 262.844971 258.517822 C265.189001 273.379377 265.186422 288.335158 265.185303 303.340332 C265.187482 306.598116 265.205683 309.855557 265.224609 313.113281 C265.273812 330.907036 264.376191 348.435045 260.625 365.875 C260.41021 366.918013 260.19542 367.961025 259.974121 369.035645 C258.467504 376.212923 256.698374 383.277967 254.601562 390.304688 C253.739643 393.077739 253.739643 393.077739 255 396 C254.562744 397.901123 254.562744 397.901123 253.785156 400.011719 C253.51123 400.769043 253.237305 401.526367 252.955078 402.306641 C252.660527 403.092324 252.365977 403.878008 252.0625 404.6875 C251.771816 405.484785 251.481133 406.28207 251.181641 407.103516 C250.462607 409.072018 249.732363 411.036418 249 413 C248.34 413 247.68 413 247 413 C246.87625 414.051875 246.7525 415.10375 246.625 416.1875 C246.088592 419.459588 245.3612 422.005361 244 425 C243.34 425 242.68 425 242 425 C241.911055 425.993867 241.822109 426.987734 241.730469 428.011719 C241.098664 432.399065 239.359415 435.919682 237.3125 439.8125 C236.955269 440.50811 236.598037 441.203721 236.22998 441.92041 C227.496374 458.751813 227.496374 458.751813 223 461 C222.279542 462.981258 221.619987 464.985041 221 467 C219.27027 471.864865 219.27027 471.864865 217 473 C216.871094 473.562031 216.742188 474.124063 216.609375 474.703125 C214.347539 483.228507 205.693676 491.816527 200.25 498.625 C199.707627 499.311748 199.165254 499.998496 198.606445 500.706055 C195.671453 504.318491 193.150055 506.769604 189 509 C186.973862 510.715627 186.973862 510.715627 185.1875 512.5625 C184.58293 513.161914 183.978359 513.761328 183.355469 514.378906 C181.786181 515.903535 181.786181 515.903535 182 518 C180.355469 519.585937 180.355469 519.585937 178.1875 521.375 C175.349157 523.722191 173.128322 525.992724 171 529 C169.275015 530.960211 167.858448 532.07985 165.5625 533.375 C162.653341 535.219832 161.043954 537.251235 159 540 C156.282088 542.717912 153.215656 544.42594 149.75 546.0625 C147.819467 546.880036 147.819467 546.880036 147 549 C145.783178 549.900803 144.524877 550.745928 143.25 551.5625 C139.124594 554.261675 135.01496 556.979003 130.9375 559.75 C130.353232 560.138733 129.768965 560.527466 129.166992 560.927979 C127.741591 561.900673 126.365443 562.944789 125 564 C125 564.66 125 565.32 125 566 C124.004199 566.106348 124.004199 566.106348 122.988281 566.214844 C118.908901 567.286681 115.753693 569.355786 112.1875 571.5625 C103.993706 576.505746 95.625891 580.867418 87 585 C85.832109 585.568477 84.664219 586.136953 83.460938 586.722656 C77.731997 589.452959 72.197542 591.754089 66.023438 593.261719 C63.91245 593.865857 63.91245 593.865857 62.496094 595.546875 C60.549335 597.437722 59.36194 597.419309 56.6875 597.5625 C52.860295 597.862673 49.606062 598.613053 46 600 C46 600.66 46 601.32 46 602 C27.402158 607.490213 27.402158 607.490213 20.452148 607.863281 C14.281992 608.207296 8.142426 608.780528 2.039062 609.753906 C-33.19669 615.184435 -69.973043 613.256351 -104.68457 605.626221 C-108.963315 604.699159 -112.980428 603.865597 -117.371094 603.949219 C-120.831342 603.99764 -123.24524 603.58492 -126.5 602.5 C-127.355937 602.221562 -128.211875 601.943125 -129.09375 601.65625 C-130.037344 601.331406 -130.037344 601.331406 -131 601 C-131 600.34 -131 599.68 -131 599 C-131.852715 598.943926 -131.852715 598.943926 -132.722656 598.886719 C-138.720306 598.376067 -143.975686 597.467203 -148.78125 593.546875 C-151.607864 591.576208 -154.416195 590.697441 -157.6875 589.625 C-162.806515 587.863676 -167.413 585.923186 -172.035156 583.113281 C-173.991879 581.941127 -173.991879 581.941127 -176.207031 581.148438 C-180.187229 579.511825 -183.872612 577.41185 -187.625 575.3125 C-188.421721 574.869143 -189.218442 574.425786 -190.039307 573.968994 C-195.470544 570.922417 -200.747326 567.72674 -205.933594 564.277344 C-208.064199 562.850915 -208.064199 562.850915 -211 562 C-211.99 561.34 -212.98 560.68 -214 560 C-214.61875 559.71125 -215.2375 559.4225 -215.875 559.125 C-219.510802 557.200163 -222.397565 554.611751 -225.273438 551.691406 C-228.12099 548.88057 -231.112918 546.303809 -234.1875 543.75 C-242.796209 536.518782 -251.09828 529.09599 -258.890869 520.984619 C-261.43466 518.378082 -263.661248 516.459768 -267 515 C-268.887551 512.797857 -270.362492 510.438722 -271.9375 508 C-273.821325 505.064869 -273.821325 505.064869 -275.875 503.125 C-278.485169 500.514831 -280.510492 497.62241 -282.632812 494.609375 C-283.083984 494.078281 -283.535156 493.547188 -284 493 C-284.66 493 -285.32 493 -286 493 C-286.495 491.515 -286.495 491.515 -287 490 C-287.66 489.34 -288.32 488.68 -289 488 C-291 486 -291 486 -292 483 C-293.11375 481.917187 -293.11375 481.917187 -294.25 480.8125 C-297.910654 477.068649 -301.463317 472.839374 -302.457031 467.582031 C-303.102811 464.511093 -304.314758 462.36562 -305.9375 459.6875 C-306.462148 458.804492 -306.986797 457.921484 -307.527344 457.011719 C-308.01332 456.347852 -308.499297 455.683984 -309 455 C-309.66 455 -310.32 455 -311 455 C-311.095391 454.316797 -311.190781 453.633594 -311.289062 452.929688 C-312.151654 449.375051 -313.686785 446.340981 -315.375 443.125 C-318.776852 436.566344 -321.762375 430.057125 -324 423 C-324.66 423 -325.32 423 -326 423 C-333.59375 402.75 -333.59375 402.75 -334.337158 400.763672 C-334.86827 399.350503 -335.407426 397.940358 -335.949219 396.53125 C-337.302212 392.80873 -338.165919 389.669131 -338.0625 385.6875 C-338.00241 382.142189 -338.151348 380.87568 -340 378 C-344.124253 371.177161 -344.671889 361.75054 -346 354 C-346.156782 353.090405 -346.313564 352.180811 -346.475098 351.243652 C-348.984404 335.858859 -349.288975 320.550316 -349.3125 305 C-349.316085 304.044815 -349.31967 303.08963 -349.323364 302.105499 C-349.348613 289.600459 -348.670842 277.395029 -347 265 C-346.34 265 -345.68 265 -345 265 C-345.058008 264.316797 -345.116016 263.633594 -345.175781 262.929688 C-345.841584 248.053748 -341.166827 233.160437 -337 219 C-336.34 219 -335.68 219 -335 219 C-334.914922 217.745742 -334.829844 216.491484 -334.742188 215.199219 C-334.094979 209.398183 -332.18794 204.243431 -330.125 198.8125 C-329.773086 197.854082 -329.421172 196.895664 -329.058594 195.908203 C-324.404206 183.389804 -324.404206 183.389804 -321.476562 180.492188 C-319.340176 178.333194 -318.512987 175.924589 -317.375 173.125 C-316.949609 172.096328 -316.524219 171.067656 -316.085938 170.007812 C-314.948026 167.13274 -314.948026 167.13274 -314.578125 164.53125 C-313.798733 161.118779 -312.143601 158.353718 -310.375 155.375 C-309.841932 154.463915 -309.841932 154.463915 -309.298096 153.534424 C-308.208444 151.683638 -307.106017 149.841044 -306 148 C-305.346445 146.903008 -304.692891 145.806016 -304.019531 144.675781 C-299.394304 137.131435 -299.394304 137.131435 -296 136 C-294.771493 133.976577 -293.997997 131.99399 -293.25 129.75 C-291.438561 125.764833 -288.962447 122.226279 -286 119 C-284.515 118.505 -284.515 118.505 -283 118 C-282.855625 117.360625 -282.71125 116.72125 -282.5625 116.0625 C-282 114 -282 114 -279.9375 112.75 C-279.298125 112.5025 -278.65875 112.255 -278 112 C-278 111.34 -278 110.68 -278 110 C-276.354562 108.312371 -274.687114 106.645965 -273 105 C-272.67 104.34 -272.34 103.68 -272 103 C-270.982271 102.097269 -269.935902 101.226576 -268.875 100.375 C-264.360008 96.576821 -259.536879 92.231537 -256.972656 86.839844 C-256 85 -256 85 -253.25 83.6875 C-248.108333 81.017788 -245.169506 76.754259 -242 72 C-240.673568 71.640185 -239.33916 71.309097 -238 71 C-236.137492 69.783255 -236.137492 69.783255 -234.355469 68.234375 C-233.339365 67.393262 -233.339365 67.393262 -232.302734 66.535156 C-231.604707 65.946055 -230.90668 65.356953 -230.1875 64.75 C-216.127107 53 -216.127107 53 -213 53 C-213 52.34 -213 51.68 -213 51 C-212.01 51 -211.02 51 -210 51 C-209.67 50.34 -209.34 49.68 -209 49 C-205.380017 45.418942 -201.909928 42.550503 -197 41 C-193.490801 39.672145 -190.209885 38.124216 -186.902344 36.355469 C-185.94175 35.845725 -184.981157 35.335981 -183.991455 34.810791 C-182.98365 34.275105 -181.975845 33.739419 -180.9375 33.1875 C-173.066931 29.042485 -165.296703 25.210409 -157 22 C-156.140195 21.619727 -155.280391 21.239453 -154.394531 20.847656 C-140.357238 14.650657 -125.429996 10.13798 -110.370605 7.241943 C-108.56818 6.884922 -106.781448 6.450162 -105 6 C-104.67 5.34 -104.34 4.68 -104 4 C-95.334092 1.412099 -86.845008 0.68339 -77.828125 0.992188 C-74.778279 0.998412 -71.941843 0.829063 -68.918945 0.520264 C-63.431199 0.004748 -57.977843 -0.213308 -52.46875 -0.316406 C-51.511581 -0.337187 -50.554412 -0.357968 -49.568237 -0.379379 C-47.561642 -0.422259 -45.555008 -0.463342 -43.54834 -0.502686 C-40.507393 -0.562355 -37.466597 -0.627361 -34.425781 -0.693359 C-32.460944 -0.734686 -30.4961 -0.775711 -28.53125 -0.816406 C-27.191693 -0.844511 -27.191693 -0.844511 -25.825073 -0.873184 C-6.971493 -1.239377 -6.971493 -1.239377 0 0 Z M-18 0 C-18 0.33 -18 0.66 -18 1 C-14.7 1 -11.4 1 -8 1 C-8 0.67 -8 0.34 -8 0 C-11.3 0 -14.6 0 -18 0 Z M-88 2 C-88 2.33 -88 2.66 -88 3 C-86.02 3 -84.04 3 -82 3 C-82 2.67 -82 2.34 -82 2 C-83.98 2 -85.96 2 -88 2 Z M-94 3 C-94 3.33 -94 3.66 -94 4 C-92.35 4 -90.7 4 -89 4 C-89 3.67 -89 3.34 -89 3 C-90.65 3 -92.3 3 -94 3 Z M-99 4 C-95 5 -95 5 -95 5 Z M-299 139 C-298 141 -298 141 -298 141 Z M-301 142 C-300 144 -300 144 -300 144 Z M-304 147 C-303 149 -303 149 -303 149 Z M-334 214 C-333 216 -333 216 -333 216 Z M-337 223 C-336 225 -336 225 -336 225 Z M-338 226 C-337 229 -337 229 -337 229 Z M-339 230 C-338 233 -338 233 -338 233 Z M-341 238 C-340 242 -340 242 -340 242 Z M-342 243 C-341 247 -341 247 -341 247 Z M-343 248 C-342 252 -342 252 -342 252 Z M-344 253 C-344 254.65 -344 256.3 -344 258 C-343.67 258 -343.34 258 -343 258 C-343 256.35 -343 254.7 -343 253 C-343.33 253 -343.66 253 -344 253 Z M-347 273 C-347 276.3 -347 279.6 -347 283 C-346.67 283 -346.34 283 -346 283 C-346 279.7 -346 276.4 -346 273 C-346.33 273 -346.66 273 -347 273 Z M-348 284 C-348 298.52 -348 313.04 -348 328 C-347.67 328 -347.34 328 -347 328 C-347 313.48 -347 298.96 -347 284 C-347.33 284 -347.66 284 -348 284 Z M-347 329 C-347 332.3 -347 335.6 -347 339 C-346.67 339 -346.34 339 -346 339 C-346 335.7 -346 332.4 -346 329 C-346.33 329 -346.66 329 -347 329 Z M-346 339 C-346 341.31 -346 343.62 -346 346 C-345.67 346 -345.34 346 -345 346 C-345 343.69 -345 341.38 -345 339 C-345.33 339 -345.66 339 -346 339 Z M-345 347 C-345 348.98 -345 350.96 -345 353 C-344.67 353 -344.34 353 -344 353 C-344 351.02 -344 349.04 -344 347 C-344.33 347 -344.66 347 -345 347 Z M-344 354 C-344 355.65 -344 357.3 -344 359 C-343.67 359 -343.34 359 -343 359 C-343 357.35 -343 355.7 -343 354 C-343.33 354 -343.66 354 -344 354 Z M-343 360 C-342 364 -342 364 -342 364 Z M-342 365 C-341 369 -341 369 -341 369 Z M-341 369 C-341 370.65 -341 372.3 -341 374 C-340.67 374 -340.34 374 -340 374 C-340 372.35 -340 370.7 -340 369 C-340.33 369 -340.66 369 -341 369 Z M-337 386 C-336 389 -336 389 -336 389 Z M-336 390 C-335 392 -335 392 -335 392 Z M252 396 C253 398 253 398 253 398 Z M251 399 C252 401 252 401 252 401 Z M250 402 C251 404 251 404 251 404 Z M-332 403 C-331 405 -331 405 -331 405 Z M249 405 C250 407 250 407 250 407 Z M-330 408 C-329 410 -329 410 -329 410 Z M248 408 C249 410 249 410 249 410 Z M-329 411 C-328 413 -328 413 -328 413 Z M-328 414 C-327 416 -327 416 -327 416 Z M245 416 C246 418 246 418 246 418 Z M-326 419 C-325 421 -325 421 -325 421 Z M243 421 C244 423 244 423 244 423 Z M240 427 C241 429 241 429 241 429 Z M39 601 C43 602 43 602 43 602 Z M35 602 C39 603 39 603 39 603 Z M23 605 C27 606 27 606 27 606 Z M18 606 C22 607 22 607 22 607 Z " fill="#FEFEFE" transform="translate(1111,492)"/>
<path d="M0 0 C0 0.66 0 1.32 0 2 C0.919988 2.150337 1.839976 2.300674 2.787842 2.455566 C20.47343 5.376487 37.964942 8.269204 55 14 C55.906372 14.301641 56.812744 14.603281 57.746582 14.914062 C69.294789 18.806316 80.291206 23.267945 91.057129 28.973633 C94.539155 30.813095 98.049642 32.595348 101.5625 34.375 C102.205581 34.708867 102.848662 35.042734 103.51123 35.386719 C107.593003 37.46122 111.598654 38.781818 116 40 C121.684211 43.368421 121.684211 43.368421 123 46 C125.016698 47.133505 125.016698 47.133505 127 48 C127 48.66 127 49.32 127 50 C127.732832 50.265708 128.465664 50.531416 129.220703 50.805176 C131.977568 51.990356 134.069833 53.327428 136.46875 55.117188 C137.287305 55.724336 138.105859 56.331484 138.949219 56.957031 C139.790977 57.589961 140.632734 58.222891 141.5 58.875 C142.341758 59.500195 143.183516 60.125391 144.050781 60.769531 C147.386143 63.253982 150.689622 65.745524 153.90625 68.382812 C155.99881 70.182738 155.99881 70.182738 159 71 C159.33 71.99 159.66 72.98 160 74 C161.329592 74.347957 162.663603 74.679168 164 75 C165.851562 76.488281 165.851562 76.488281 167.625 78.3125 C168.215391 78.906758 168.805781 79.501016 169.414062 80.113281 C171 82 171 82 171.890625 83.892822 C173.113982 86.2165 174.485418 87.743997 176.335938 89.601562 C176.988203 90.256406 177.640469 90.91125 178.3125 91.585938 C178.993125 92.258828 179.67375 92.931719 180.375 93.625 C181.047891 94.305625 181.720781 94.98625 182.414062 95.6875 C183.068906 96.339766 183.72375 96.992031 184.398438 97.664062 C184.993179 98.256548 185.58792 98.849033 186.200684 99.459473 C187.955808 101.090404 187.955808 101.090404 190.193848 102.083496 C190.789878 102.385942 191.385908 102.688389 192 103 C192.333333 104.333333 192.666667 105.666667 193 107 C193.583945 107.269414 194.167891 107.538828 194.769531 107.816406 C197.68705 109.364582 199.158591 111.345217 201.1875 113.9375 C202.229707 115.25041 202.229707 115.25041 203.292969 116.589844 C205 119 205 119 206 122 C206.825 122.78375 207.65 123.5675 208.5 124.375 C211.269219 127.28268 211.281732 128.229093 212 132 C213.223757 133.899501 214.549012 135.670267 215.941406 137.449219 C217 139 217 139 217 141 C217.66 141.33 218.32 141.66 219 142 C219.666667 143.333333 220.333333 144.666667 221 146 C221.980204 147.019412 222.97803 148.022464 224 149 C224.33 149.66 224.66 150.32 225 151 C225.430547 151.559453 225.861094 152.118906 226.304688 152.695312 C228.464469 155.631422 230.299705 158.725865 232.125 161.875 C232.484648 162.474414 232.844297 163.073828 233.214844 163.691406 C235.396514 167.458261 236.562952 170.669248 237 175 C237.66 175 238.32 175 239 175 C239.154687 176.515938 239.154687 176.515938 239.3125 178.0625 C240.050274 182.287931 241.030042 185.211619 243 189 C243.99 189.33 244.98 189.66 246 190 C247.199259 192.672975 248.193938 195.234886 249.125 198 C249.521387 199.096348 249.521387 199.096348 249.925781 200.214844 C251.207035 203.915519 252.131354 207.37123 252.472656 211.277344 C253.000088 217.224463 254.724979 222.825607 256.3125 228.5625 C258.722251 237.572231 260.841751 246.548273 262.375 255.75 C262.53009 256.663381 262.685181 257.576763 262.844971 258.517822 C265.189001 273.379377 265.186422 288.335158 265.185303 303.340332 C265.187482 306.598116 265.205683 309.855557 265.224609 313.113281 C265.273812 330.907036 264.376191 348.435045 260.625 365.875 C260.41021 366.918013 260.19542 367.961025 259.974121 369.035645 C258.467504 376.212923 256.698374 383.277967 254.601562 390.304688 C253.739643 393.077739 253.739643 393.077739 255 396 C254.562744 397.901123 254.562744 397.901123 253.785156 400.011719 C253.51123 400.769043 253.237305 401.526367 252.955078 402.306641 C252.660527 403.092324 252.365977 403.878008 252.0625 404.6875 C251.771816 405.484785 251.481133 406.28207 251.181641 407.103516 C250.462607 409.072018 249.732363 411.036418 249 413 C248.34 413 247.68 413 247 413 C246.87625 414.051875 246.7525 415.10375 246.625 416.1875 C246.088592 419.459588 245.3612 422.005361 244 425 C243.34 425 242.68 425 242 425 C241.911055 425.993867 241.822109 426.987734 241.730469 428.011719 C241.098664 432.399065 239.359415 435.919682 237.3125 439.8125 C236.955269 440.50811 236.598037 441.203721 236.22998 441.92041 C227.496374 458.751813 227.496374 458.751813 223 461 C222.279542 462.981258 221.619987 464.985041 221 467 C219.27027 471.864865 219.27027 471.864865 217 473 C216.871094 473.562031 216.742188 474.124063 216.609375 474.703125 C214.347539 483.228507 205.693676 491.816527 200.25 498.625 C199.707627 499.311748 199.165254 499.998496 198.606445 500.706055 C195.671453 504.318491 193.150055 506.769604 189 509 C186.973862 510.715627 186.973862 510.715627 185.1875 512.5625 C184.58293 513.161914 183.978359 513.761328 183.355469 514.378906 C181.786181 515.903535 181.786181 515.903535 182 518 C180.355469 519.585937 180.355469 519.585937 178.1875 521.375 C175.349157 523.722191 173.128322 525.992724 171 529 C169.275015 530.960211 167.858448 532.07985 165.5625 533.375 C162.653341 535.219832 161.043954 537.251235 159 540 C156.282088 542.717912 153.215656 544.42594 149.75 546.0625 C147.819467 546.880036 147.819467 546.880036 147 549 C145.783178 549.900803 144.524877 550.745928 143.25 551.5625 C139.124594 554.261675 135.01496 556.979003 130.9375 559.75 C130.353232 560.138733 129.768965 560.527466 129.166992 560.927979 C127.741591 561.900673 126.365443 562.944789 125 564 C125 564.66 125 565.32 125 566 C124.004199 566.106348 124.004199 566.106348 122.988281 566.214844 C118.908901 567.286681 115.753693 569.355786 112.1875 571.5625 C103.993706 576.505746 95.625891 580.867418 87 585 C85.832109 585.568477 84.664219 586.136953 83.460938 586.722656 C77.731997 589.452959 72.197542 591.754089 66.023438 593.261719 C63.91245 593.865857 63.91245 593.865857 62.496094 595.546875 C60.549335 597.437722 59.36194 597.419309 56.6875 597.5625 C52.860295 597.862673 49.606062 598.613053 46 600 C46 600.66 46 601.32 46 602 C27.402158 607.490213 27.402158 607.490213 20.452148 607.863281 C14.281992 608.207296 8.142426 608.780528 2.039062 609.753906 C-33.19669 615.184435 -69.973043 613.256351 -104.68457 605.626221 C-108.963315 604.699159 -112.980428 603.865597 -117.371094 603.949219 C-120.831342 603.99764 -123.24524 603.58492 -126.5 602.5 C-127.355937 602.221562 -128.211875 601.943125 -129.09375 601.65625 C-130.037344 601.331406 -130.037344 601.331406 -131 601 C-131 600.34 -131 599.68 -131 599 C-131.852715 598.943926 -131.852715 598.943926 -132.722656 598.886719 C-138.720306 598.376067 -143.975686 597.467203 -148.78125 593.546875 C-151.607864 591.576208 -154.416195 590.697441 -157.6875 589.625 C-162.806515 587.863676 -167.413 585.923186 -172.035156 583.113281 C-173.991879 581.941127 -173.991879 581.941127 -176.207031 581.148438 C-180.187229 579.511825 -183.872612 577.41185 -187.625 575.3125 C-188.421721 574.869143 -189.218442 574.425786 -190.039307 573.968994 C-195.470544 570.922417 -200.747326 567.72674 -205.933594 564.277344 C-208.064199 562.850915 -208.064199 562.850915 -211 562 C-211.99 561.34 -212.98 560.68 -214 560 C-214.61875 559.71125 -215.2375 559.4225 -215.875 559.125 C-219.510802 557.200163 -222.397565 554.611751 -225.273438 551.691406 C-228.12099 548.88057 -231.112918 546.303809 -234.1875 543.75 C-242.796209 536.518782 -251.09828 529.09599 -258.890869 520.984619 C-261.43466 518.378082 -263.661248 516.459768 -267 515 C-268.887551 512.797857 -270.362492 510.438722 -271.9375 508 C-273.821325 505.064869 -273.821325 505.064869 -275.875 503.125 C-278.485169 500.514831 -280.510492 497.62241 -282.632812 494.609375 C-283.083984 494.078281 -283.535156 493.547188 -284 493 C-284.66 493 -285.32 493 -286 493 C-286.495 491.515 -286.495 491.515 -287 490 C-287.66 489.34 -288.32 488.68 -289 488 C-291 486 -291 486 -292 483 C-293.11375 481.917187 -293.11375 481.917187 -294.25 480.8125 C-297.910654 477.068649 -301.463317 472.839374 -302.457031 467.582031 C-303.102811 464.511093 -304.314758 462.36562 -305.9375 459.6875 C-306.462148 458.804492 -306.986797 457.921484 -307.527344 457.011719 C-308.01332 456.347852 -308.499297 455.683984 -309 455 C-309.66 455 -310.32 455 -311 455 C-311.095391 454.316797 -311.190781 453.633594 -311.289062 452.929688 C-312.151654 449.375051 -313.686785 446.340981 -315.375 443.125 C-318.776852 436.566344 -321.762375 430.057125 -324 423 C-324.66 423 -325.32 423 -326 423 C-333.59375 402.75 -333.59375 402.75 -334.337158 400.763672 C-334.86827 399.350503 -335.407426 397.940358 -335.949219 396.53125 C-337.302212 392.80873 -338.165919 389.669131 -338.0625 385.6875 C-338.00241 382.142189 -338.151348 380.87568 -340 378 C-344.124253 371.177161 -344.671889 361.75054 -346 354 C-346.156782 353.090405 -346.313564 352.180811 -346.475098 351.243652 C-348.984404 335.858859 -349.288975 320.550316 -349.3125 305 C-349.316085 304.044815 -349.31967 303.08963 -349.323364 302.105499 C-349.348613 289.600459 -348.670842 277.395029 -347 265 C-346.34 265 -345.68 265 -345 265 C-345.058008 264.316797 -345.116016 263.633594 -345.175781 262.929688 C-345.841584 248.053748 -341.166827 233.160437 -337 219 C-336.34 219 -335.68 219 -335 219 C-334.914922 217.745742 -334.829844 216.491484 -334.742188 215.199219 C-334.094979 209.398183 -332.18794 204.243431 -330.125 198.8125 C-329.773086 197.854082 -329.421172 196.895664 -329.058594 195.908203 C-324.404206 183.389804 -324.404206 183.389804 -321.476562 180.492188 C-319.340176 178.333194 -318.512987 175.924589 -317.375 173.125 C-316.949609 172.096328 -316.524219 171.067656 -316.085938 170.007812 C-314.948026 167.13274 -314.948026 167.13274 -314.578125 164.53125 C-313.798733 161.118779 -312.143601 158.353718 -310.375 155.375 C-309.841932 154.463915 -309.841932 154.463915 -309.298096 153.534424 C-308.208444 151.683638 -307.106017 149.841044 -306 148 C-305.346445 146.903008 -304.692891 145.806016 -304.019531 144.675781 C-299.394304 137.131435 -299.394304 137.131435 -296 136 C-294.771493 133.976577 -293.997997 131.99399 -293.25 129.75 C-291.438561 125.764833 -288.962447 122.226279 -286 119 C-284.515 118.505 -284.515 118.505 -283 118 C-282.855625 117.360625 -282.71125 116.72125 -282.5625 116.0625 C-282 114 -282 114 -279.9375 112.75 C-279.298125 112.5025 -278.65875 112.255 -278 112 C-278 111.34 -278 110.68 -278 110 C-276.354562 108.312371 -274.687114 106.645965 -273 105 C-272.67 104.34 -272.34 103.68 -272 103 C-270.982271 102.097269 -269.935902 101.226576 -268.875 100.375 C-264.360008 96.576821 -259.536879 92.231537 -256.972656 86.839844 C-256 85 -256 85 -253.25 83.6875 C-248.108333 81.017788 -245.169506 76.754259 -242 72 C-240.673568 71.640185 -239.33916 71.309097 -238 71 C-236.137492 69.783255 -236.137492 69.783255 -234.355469 68.234375 C-233.339365 67.393262 -233.339365 67.393262 -232.302734 66.535156 C-231.604707 65.946055 -230.90668 65.356953 -230.1875 64.75 C-216.127107 53 -216.127107 53 -213 53 C-213 52.34 -213 51.68 -213 51 C-212.01 51 -211.02 51 -210 51 C-209.67 50.34 -209.34 49.68 -209 49 C-205.380017 45.418942 -201.909928 42.550503 -197 41 C-193.490801 39.672145 -190.209885 38.124216 -186.902344 36.355469 C-185.94175 35.845725 -184.981157 35.335981 -183.991455 34.810791 C-182.98365 34.275105 -181.975845 33.739419 -180.9375 33.1875 C-173.066931 29.042485 -165.296703 25.210409 -157 22 C-156.140195 21.619727 -155.280391 21.239453 -154.394531 20.847656 C-140.357238 14.650657 -125.429996 10.13798 -110.370605 7.241943 C-108.56818 6.884922 -106.781448 6.450162 -105 6 C-104.67 5.34 -104.34 4.68 -104 4 C-95.334092 1.412099 -86.845008 0.68339 -77.828125 0.992188 C-74.778279 0.998412 -71.941843 0.829063 -68.918945 0.520264 C-63.431199 0.004748 -57.977843 -0.213308 -52.46875 -0.316406 C-51.511581 -0.337187 -50.554412 -0.357968 -49.568237 -0.379379 C-47.561642 -0.422259 -45.555008 -0.463342 -43.54834 -0.502686 C-40.507393 -0.562355 -37.466597 -0.627361 -34.425781 -0.693359 C-32.460944 -0.734686 -30.4961 -0.775711 -28.53125 -0.816406 C-27.191693 -0.844511 -27.191693 -0.844511 -25.825073 -0.873184 C-6.971493 -1.239377 -6.971493 -1.239377 0 0 Z M-18 0 C-18 0.33 -18 0.66 -18 1 C-14.7 1 -11.4 1 -8 1 C-8 0.67 -8 0.34 -8 0 C-11.3 0 -14.6 0 -18 0 Z M-88 2 C-88 2.33 -88 2.66 -88 3 C-86.02 3 -84.04 3 -82 3 C-82 2.67 -82 2.34 -82 2 C-83.98 2 -85.96 2 -88 2 Z M-94 3 C-94 3.33 -94 3.66 -94 4 C-92.35 4 -90.7 4 -89 4 C-89 3.67 -89 3.34 -89 3 C-90.65 3 -92.3 3 -94 3 Z M-99 4 C-95 5 -95 5 -95 5 Z M-111.4375 33 C-112.811077 33.355177 -112.811077 33.355177 -114.212402 33.717529 C-119.500989 35.149673 -124.516153 36.932717 -129.576904 39.026855 C-132.618008 40.2482 -135.706732 41.26164 -138.820312 42.280029 C-170.665134 52.806293 -199.937997 70.850608 -225 93 C-225.788906 93.678047 -226.577812 94.356094 -227.390625 95.054688 C-240.222114 106.271329 -252.574769 118.359651 -262.643066 132.142578 C-264.135415 134.185361 -265.65182 136.209204 -267.167969 138.234375 C-281.545377 157.611056 -294.684997 178.520915 -302.703125 201.378906 C-303.864315 204.621145 -305.164663 207.729867 -306.5625 210.875 C-309.544412 217.934415 -311.43549 225.246983 -313.370605 232.645508 C-313.977831 234.917068 -314.624614 237.173128 -315.285156 239.429688 C-321.499331 261.041072 -323.669351 282.951459 -323.466553 305.381836 C-323.437328 308.895657 -323.446073 312.407981 -323.458984 315.921875 C-323.446254 329.863985 -322.462393 343.277802 -320 357 C-319.796086 358.178364 -319.592173 359.356729 -319.38208 360.570801 C-318.860534 363.433483 -318.292523 366.278906 -317.6875 369.125 C-317.478752 370.115081 -317.270005 371.105161 -317.054932 372.125244 C-314.445806 384.075824 -311.041506 395.7328 -305.966553 406.875244 C-305.138534 408.695462 -304.350311 410.533693 -303.570312 412.375 C-289.269047 445.388866 -270.228866 473.986065 -244.8125 499.5 C-243.910317 500.407742 -243.008135 501.315483 -242.078613 502.250732 C-236.020821 508.244056 -229.677141 513.710221 -223 519 C-221.928256 519.869632 -220.856614 520.73939 -219.785156 521.609375 C-197.019018 539.508721 -170.547918 555.83264 -143.257812 565.796875 C-140.617749 566.771863 -138.022159 567.802659 -135.417969 568.867188 C-70.494401 594.904496 6.625846 595.470276 71.519531 568.105469 C72.338086 567.740664 73.156641 567.375859 74 567 C75.614551 566.282637 75.614551 566.282637 77.261719 565.550781 C116.874308 547.636431 154.35961 521.8217 181 487 C181.805664 485.988086 182.611328 484.976172 183.441406 483.933594 C201.063324 461.708482 213.119865 436.473046 223 410 C223.349175 409.087666 223.69835 408.175332 224.058105 407.235352 C226.497975 400.748279 228.370678 394.233424 230 387.5 C230.382368 385.933064 230.382368 385.933064 230.772461 384.334473 C231.524534 381.225177 232.263791 378.113084 233 375 C233.206895 374.142451 233.413789 373.284902 233.626953 372.401367 C238.288577 352.909459 239.345809 333.295768 239.260742 313.303467 C239.249966 310.303019 239.260752 307.303165 239.273438 304.302734 C239.286666 287.932785 238.233634 271.941315 234.625 255.9375 C234.291938 254.415399 234.291938 254.415399 233.952148 252.862549 C233.507864 250.835301 233.060082 248.808815 232.608398 246.783203 C232.073071 244.334273 231.576065 241.883152 231.101562 239.421875 C224.139978 204.129108 208.8846 168.304478 188 139 C187.235785 137.888841 186.472829 136.776816 185.710938 135.664062 C179.685038 126.948007 173.027328 118.921893 166 111 C165.181445 110.069297 164.362891 109.138594 163.519531 108.179688 C155.602821 99.268278 147.352675 91.400597 138 84 C136.551738 82.826309 136.551738 82.826309 135.074219 81.628906 C113.047264 64.136089 88.043376 50.868997 61.768066 41.045898 C59.404639 40.152891 57.066328 39.219803 54.730469 38.257812 C40.791097 32.696744 25.715957 30.57745 11 28 C9.933462 27.808574 8.866924 27.617148 7.768066 27.419922 C6.768237 27.245254 5.768408 27.070586 4.738281 26.890625 C3.889192 26.741416 3.040103 26.592207 2.165283 26.438477 C-6.337156 25.260661 -14.75875 24.849367 -23.335938 24.867188 C-24.377148 24.866231 -25.418358 24.865274 -26.491119 24.864288 C-28.677674 24.863613 -30.864231 24.865424 -33.050781 24.869629 C-36.359422 24.874975 -39.667926 24.869669 -42.976562 24.863281 C-66.312017 24.853716 -88.777488 27.123595 -111.4375 33 Z M-299 139 C-298 141 -298 141 -298 141 Z M-301 142 C-300 144 -300 144 -300 144 Z M-304 147 C-303 149 -303 149 -303 149 Z M-334 214 C-333 216 -333 216 -333 216 Z M-337 223 C-336 225 -336 225 -336 225 Z M-338 226 C-337 229 -337 229 -337 229 Z M-339 230 C-338 233 -338 233 -338 233 Z M-341 238 C-340 242 -340 242 -340 242 Z M-342 243 C-341 247 -341 247 -341 247 Z M-343 248 C-342 252 -342 252 -342 252 Z M-344 253 C-344 254.65 -344 256.3 -344 258 C-343.67 258 -343.34 258 -343 258 C-343 256.35 -343 254.7 -343 253 C-343.33 253 -343.66 253 -344 253 Z M-347 273 C-347 276.3 -347 279.6 -347 283 C-346.67 283 -346.34 283 -346 283 C-346 279.7 -346 276.4 -346 273 C-346.33 273 -346.66 273 -347 273 Z M-348 284 C-348 298.52 -348 313.04 -348 328 C-347.67 328 -347.34 328 -347 328 C-347 313.48 -347 298.96 -347 284 C-347.33 284 -347.66 284 -348 284 Z M-347 329 C-347 332.3 -347 335.6 -347 339 C-346.67 339 -346.34 339 -346 339 C-346 335.7 -346 332.4 -346 329 C-346.33 329 -346.66 329 -347 329 Z M-346 339 C-346 341.31 -346 343.62 -346 346 C-345.67 346 -345.34 346 -345 346 C-345 343.69 -345 341.38 -345 339 C-345.33 339 -345.66 339 -346 339 Z M-345 347 C-345 348.98 -345 350.96 -345 353 C-344.67 353 -344.34 353 -344 353 C-344 351.02 -344 349.04 -344 347 C-344.33 347 -344.66 347 -345 347 Z M-344 354 C-344 355.65 -344 357.3 -344 359 C-343.67 359 -343.34 359 -343 359 C-343 357.35 -343 355.7 -343 354 C-343.33 354 -343.66 354 -344 354 Z M-343 360 C-342 364 -342 364 -342 364 Z M-342 365 C-341 369 -341 369 -341 369 Z M-341 369 C-341 370.65 -341 372.3 -341 374 C-340.67 374 -340.34 374 -340 374 C-340 372.35 -340 370.7 -340 369 C-340.33 369 -340.66 369 -341 369 Z M-337 386 C-336 389 -336 389 -336 389 Z M-336 390 C-335 392 -335 392 -335 392 Z M252 396 C253 398 253 398 253 398 Z M251 399 C252 401 252 401 252 401 Z M250 402 C251 404 251 404 251 404 Z M-332 403 C-331 405 -331 405 -331 405 Z M249 405 C250 407 250 407 250 407 Z M-330 408 C-329 410 -329 410 -329 410 Z M248 408 C249 410 249 410 249 410 Z M-329 411 C-328 413 -328 413 -328 413 Z M-328 414 C-327 416 -327 416 -327 416 Z M245 416 C246 418 246 418 246 418 Z M-326 419 C-325 421 -325 421 -325 421 Z M243 421 C244 423 244 423 244 423 Z M240 427 C241 429 241 429 241 429 Z M39 601 C43 602 43 602 43 602 Z M35 602 C39 603 39 603 39 603 Z M23 605 C27 606 27 606 27 606 Z M18 606 C22 607 22 607 22 607 Z " fill="#020202" transform="translate(1111,492)"/>
<path d="M0 0 C4.308366 1.325269 8.644084 2.552391 12.980469 3.782227 C13.858481 4.033191 14.736494 4.284155 15.641113 4.542725 C19.890997 5.755584 24.144584 6.949928 28.410156 8.106445 C49.95358 14.004371 71.043778 21.50821 91.855469 29.594727 C92.974456 30.02616 94.093442 30.457593 95.246338 30.9021 C106.158271 35.218427 117.545094 39.742167 123.980469 50.094727 C126.467069 61.97515 122.841196 74.377372 116.308594 84.407227 C113.021481 88.82883 109.394544 92.848411 105.542969 96.782227 C105.024766 97.336523 104.506562 97.89082 103.972656 98.461914 C87.913873 114.016233 63.349722 116.127929 42.320312 115.93457 C29.948226 115.691271 18.393872 113.315334 6.542969 109.782227 C5.017363 109.335566 5.017363 109.335566 3.460938 108.879883 C-25.560068 99.827816 -50.257684 82.279303 -65.457031 55.782227 C-65.869531 55.095156 -66.282031 54.408086 -66.707031 53.700195 C-73.50785 41.50654 -75.978166 25.618786 -72.503906 12.063477 C-70.366646 6.165719 -67.883933 0.32042 -63.457031 -4.217773 C-62.733867 -4.973809 -62.733867 -4.973809 -61.996094 -5.745117 C-47.229265 -17.805808 -15.722087 -4.917723 0 0 Z " fill="#030303" transform="translate(1046.45703125,794.2177734375)"/>
<path d="M0 0 C17.661337 3.857279 28.189876 10.756232 38.208496 25.99585 C42.988159 33.520856 46.975972 41.416 50.378906 49.65625 C51.589038 52.890367 51.589038 52.890367 53.8125 54.875 C54.8025 52.565 55.7925 50.255 56.8125 47.875 C61.866636 47.243233 64.750985 48.505656 68.808594 51.285156 C82.548758 62.186222 90.465966 81.828912 92.8125 98.875 C67.004746 99.281964 67.004746 99.281964 56.8125 96.875 C56.000391 96.719023 55.188281 96.563047 54.351562 96.402344 C50.293177 95.600105 46.690435 94.524159 42.921875 92.769531 C40.12805 91.584742 37.257387 90.69884 34.375 89.75 C11.56229 81.6372 -9.513097 65.70921 -20.65625 44.015625 C-25.750655 33.293679 -28.529329 21.925852 -25.464844 10.082031 C-20.09097 -2.906644 -12.445936 -2.163377 0 0 Z " fill="#FBFBFB" transform="translate(1012.1875,798.125)"/>
<path d="M0 0 C1.206549 0.718954 2.396823 1.466512 3.5625 2.25 C4.42875 2.806875 5.295 3.36375 6.1875 3.9375 C14.244901 11.782864 17.947744 21.179251 18.375 32.25 C18.411416 33.072341 18.447832 33.894683 18.485352 34.741943 C19.071868 53.088236 15.456725 70.561519 3.0625 84.625 C-4.283395 92.375594 -10.847328 98.378191 -21.9375 98.75 C-30.007966 98.451784 -34.701307 96.379717 -40.1875 90.5 C-46.869366 82.269156 -51.135143 71.9472 -50.4375 61.25 C-35.008929 53.25 -35.008929 53.25 -30.4375 53.25 C-35.282452 46.964657 -40.911675 42.720539 -47.4375 38.25 C-45.101904 25.250565 -39.040959 12.543209 -28.4375 4.25 C-19.602516 -1.545954 -10.070034 -4.723281 0 0 Z " fill="#020202" transform="translate(1004.4375,668.75)"/>
<path d="M0 0 C9.227254 5.101131 14.148037 12.577103 17.449219 22.394531 C22.560582 40.531627 19.119434 60.026397 10.285156 76.328125 C5.177026 85.346153 -1.668733 93.661386 -11.644531 97.5 C-18.034633 98.885667 -25.978377 99.479557 -31.886719 96.285156 C-40.844253 89.233481 -46.585137 80.574047 -48.226562 69.179688 C-48.473882 66.777635 -48.678302 64.38279 -48.824219 61.972656 C-47.871602 61.502148 -46.918984 61.031641 -45.9375 60.546875 C-44.670519 59.918077 -43.403595 59.289165 -42.136719 58.660156 C-41.197959 58.197061 -41.197959 58.197061 -40.240234 57.724609 C-36.670015 55.948846 -33.211123 54.077329 -29.824219 51.972656 C-31.73986 50.367252 -33.656688 48.763301 -35.574219 47.160156 C-36.113047 46.70834 -36.651875 46.256523 -37.207031 45.791016 C-40.024312 43.437556 -42.859754 41.138443 -45.824219 38.972656 C-44.583034 24.699032 -36.430357 13.158494 -25.824219 3.972656 C-17.927836 -1.258228 -9.188177 -3.34231 0 0 Z " fill="#020202" transform="translate(1226.82421875,729.02734375)"/>
<path d="M0 0 C14.85 0 29.7 0 45 0 C45 0.33 45 0.66 45 1 C30.15 1 15.3 1 0 1 C0 0.67 0 0.34 0 0 Z " fill="#000000" transform="translate(1048,1105)"/>
<path d="M0 0 C14.85 0 29.7 0 45 0 C45 0.33 45 0.66 45 1 C30.15 1 15.3 1 0 1 C0 0.67 0 0.34 0 0 Z " fill="#000000" transform="translate(1048,490)"/>
<path d="M0 0 C8.389559 0.650619 16.68016 1.748987 25 3 C25 3.33 25 3.66 25 4 C19.121235 4.16033 13.766119 3.609253 8 2.5 C7.225273 2.356914 6.450547 2.213828 5.652344 2.066406 C3.767044 1.717277 1.883341 1.359547 0 1 C0 0.67 0 0.34 0 0 Z " fill="#000000" transform="translate(1012,1100)"/>
<path d="M0 0 C0 0.33 0 0.66 0 1 C-8.396933 2.372929 -16.486272 3.312749 -25 3 C-25 2.67 -25 2.34 -25 2 C-22.146336 1.661788 -19.292194 1.329302 -16.4375 1 C-15.637637 0.904609 -14.837773 0.809219 -14.013672 0.710938 C-9.305478 0.172858 -4.738527 -0.101767 0 0 Z " fill="#000000" transform="translate(1118,1102)"/>
<path d="M0 0 C4.136211 3.381004 7.813166 6.665905 11 11 C7.841649 9.6025 5.677272 7.948018 3.25 5.5 C2.636406 4.891562 2.022812 4.283125 1.390625 3.65625 C0 2 0 2 0 0 Z " fill="#000000" transform="translate(847,1009)"/>
<path d="M0 0 C0.33 0 0.66 0 1 0 C1 5.94 1 11.88 1 18 C0.67 18 0.34 18 0 18 C0 12.06 0 6.12 0 0 Z " fill="#000000" transform="translate(1377,789)"/>
<path d="M0 0 C3.63 0 7.26 0 11 0 C11 0.33 11 0.66 11 1 C7.37 1 3.74 1 0 1 C0 0.67 0 0.34 0 0 Z " fill="#000000" transform="translate(1037,1104)"/>
<path d="M0 0 C3.63 0 7.26 0 11 0 C11 0.33 11 0.66 11 1 C7.37 1 3.74 1 0 1 C0 0.67 0 0.34 0 0 Z " fill="#000000" transform="translate(1037,491)"/>
<path d="M0 0 C2.64 0 5.28 0 8 0 C8 0.33 8 0.66 8 1 C5.36 1 2.72 1 0 1 C0 0.67 0 0.34 0 0 Z " fill="#000000" transform="translate(1029,492)"/>
<path d="M0 0 C0.33 0 0.66 0 1 0 C1 2.31 1 4.62 1 7 C0.67 7 0.34 7 0 7 C0 4.69 0 2.38 0 0 Z " fill="#000000" transform="translate(765,750)"/>
<path d="M0 0 C2.31 0 4.62 0 7 0 C7 0.33 7 0.66 7 1 C4.69 1 2.38 1 0 1 C0 0.67 0 0.34 0 0 Z " fill="#000000" transform="translate(1111,493)"/>
<path d="M0 0 C1.98 0 3.96 0 6 0 C6 0.33 6 0.66 6 1 C4.02 1 2.04 1 0 1 C0 0.67 0 0.34 0 0 Z " fill="#000000" transform="translate(1118,1101)"/>
<path d="M0 0 C2.475 0.495 2.475 0.495 5 1 C4.01 1.495 4.01 1.495 3 2 C2.01 1.34 1.02 0.68 0 0 Z " fill="#000000" transform="translate(1191,515)"/>
<path d="M0 0 C1.98 0 3.96 0 6 0 C6 0.33 6 0.66 6 1 C4.02 1 2.04 1 0 1 C0 0.67 0 0.34 0 0 Z " fill="#000000" transform="translate(1118,494)"/>
<path d="M0 0 C1.65 0 3.3 0 5 0 C5 0.33 5 0.66 5 1 C3.35 1 1.7 1 0 1 C0 0.67 0 0.34 0 0 Z " fill="#000000" transform="translate(1124,1100)"/>
<path d="M0 0 C1.65 0 3.3 0 5 0 C5 0.33 5 0.66 5 1 C3.35 1 1.7 1 0 1 C0 0.67 0 0.34 0 0 Z " fill="#000000" transform="translate(1007,1099)"/>
<path d="M0 0 C1.65 0 3.3 0 5 0 C5 0.33 5 0.66 5 1 C3.35 1 1.7 1 0 1 C0 0.67 0 0.34 0 0 Z " fill="#000000" transform="translate(1002,1098)"/>
<path d="M0 0 C0.66 0.33 1.32 0.66 2 1 C1.01 1.66 0.02 2.32 -1 3 C-0.67 2.01 -0.34 1.02 0 0 Z " fill="#000000" transform="translate(1276,1025)"/>
<path d="M0 0 C0.99 0.33 1.98 0.66 3 1 C1.68 1.33 0.36 1.66 -1 2 C-0.67 1.34 -0.34 0.68 0 0 Z " fill="#000000" transform="translate(939,518)"/>
<path d="M0 0 C1.65 0 3.3 0 5 0 C5 0.33 5 0.66 5 1 C3.35 1 1.7 1 0 1 C0 0.67 0 0.34 0 0 Z " fill="#000000" transform="translate(1124,495)"/>
<path d="M0 0 C4 1 4 1 4 1 Z " fill="#000000" transform="translate(998,1097)"/>
<path d="M0 0 C4 1 4 1 4 1 Z " fill="#000000" transform="translate(994,1096)"/>
<path d="M0 0 C4 1 4 1 4 1 Z " fill="#000000" transform="translate(1163,1090)"/>
<path d="M0 0 C0.66 0.33 1.32 0.66 2 1 C1.01 1 0.02 1 -1 1 C-0.67 0.67 -0.34 0.34 0 0 Z " fill="#000000" transform="translate(1237,1055)"/>
<path d="M0 0 C0.66 0.33 1.32 0.66 2 1 C1.01 1 0.02 1 -1 1 C-0.67 0.67 -0.34 0.34 0 0 Z " fill="#000000" transform="translate(1240,1053)"/>
<path d="M0 0 C0.66 0.33 1.32 0.66 2 1 C1.01 1 0.02 1 -1 1 C-0.67 0.67 -0.34 0.34 0 0 Z " fill="#000000" transform="translate(1273,1028)"/>
<path d="M0 0 C1 4 1 4 1 4 Z " fill="#000000" transform="translate(1366,881)"/>
<path d="M0 0 C1 4 1 4 1 4 Z " fill="#000000" transform="translate(772,874)"/>
<path d="M0 0 C1 4 1 4 1 4 Z " fill="#000000" transform="translate(771,870)"/>
<path d="M0 0 C1 4 1 4 1 4 Z " fill="#000000" transform="translate(1363,701)"/>
<path d="M0 0 C0.66 0.33 1.32 0.66 2 1 C1.01 1 0.02 1 -1 1 C-0.67 0.67 -0.34 0.34 0 0 Z " fill="#000000" transform="translate(881,554)"/>
<path d="M0 0 C4 1 4 1 4 1 Z " fill="#000000" transform="translate(1129,496)"/>
<path d="M0 0 C3 1 3 1 3 1 Z " fill="#000000" transform="translate(1157,1092)"/>
<path d="M0 0 C3 1 3 1 3 1 Z " fill="#000000" transform="translate(1160,1091)"/>
<path d="M0 0 C3 1 3 1 3 1 Z " fill="#000000" transform="translate(977,1091)"/>
<path d="M0 0 C3 1 3 1 3 1 Z " fill="#000000" transform="translate(1167,1089)"/>
<path d="" fill="#000000" transform="translate(0,0)"/>
<path d="" fill="#000000" transform="translate(0,0)"/>
<path d="" fill="#000000" transform="translate(0,0)"/>
<path d="" fill="#000000" transform="translate(0,0)"/>
<path d="" fill="#000000" transform="translate(0,0)"/>
<path d="" fill="#000000" transform="translate(0,0)"/>
<path d="" fill="#000000" transform="translate(0,0)"/>
<path d="" fill="#000000" transform="translate(0,0)"/>
<path d="" fill="#000000" transform="translate(0,0)"/>
<path d="" fill="#000000" transform="translate(0,0)"/>
<path d="" fill="#000000" transform="translate(0,0)"/>
<path d="M0 0 C3 1 3 1 3 1 Z " fill="#000000" transform="translate(1204,521)"/>
<path d="M0 0 C3 1 3 1 3 1 Z " fill="#000000" transform="translate(942,517)"/>
<path d="M0 0 C3 1 3 1 3 1 Z " fill="#000000" transform="translate(948,514)"/>
<path d="M0 0 C3 1 3 1 3 1 Z " fill="#000000" transform="translate(1185,512)"/>
<path d="M0 0 C3 1 3 1 3 1 Z " fill="#000000" transform="translate(955,511)"/>
<path d="M0 0 C3 1 3 1 3 1 Z " fill="#000000" transform="translate(1180,510)"/>
<path d="M0 0 C3 1 3 1 3 1 Z " fill="#000000" transform="translate(960,509)"/>
<path d="M0 0 C3 1 3 1 3 1 Z " fill="#000000" transform="translate(963,508)"/>
<path d="M0 0 C3 1 3 1 3 1 Z " fill="#000000" transform="translate(1172,507)"/>
<path d="M0 0 C3 1 3 1 3 1 Z " fill="#000000" transform="translate(966,507)"/>
<path d="M0 0 C3 1 3 1 3 1 Z " fill="#000000" transform="translate(1169,506)"/>
<path d="M0 0 C3 1 3 1 3 1 Z " fill="#000000" transform="translate(1166,505)"/>
<path d="M0 0 C2 1 2 1 2 1 Z " fill="#000000" transform="translate(1175,1086)"/>
<path d="M0 0 C2 1 2 1 2 1 Z " fill="#000000" transform="translate(1196,1078)"/>
<path d="M0 0 C2 1 2 1 2 1 Z " fill="#000000" transform="translate(1198,1077)"/>
<path d="M0 0 C2 1 2 1 2 1 Z " fill="#000000" transform="translate(1203,1075)"/>
<path d="M0 0 C2 1 2 1 2 1 Z " fill="#000000" transform="translate(1205,1074)"/>
<path d="M0 0 C2 1 2 1 2 1 Z " fill="#000000" transform="translate(934,1074)"/>
<path d="M0 0 C2 1 2 1 2 1 Z " fill="#000000" transform="translate(1207,1073)"/>
<path d="M0 0 C2 1 2 1 2 1 Z " fill="#000000" transform="translate(1209,1072)"/>
<path d="M0 0 C2 1 2 1 2 1 Z " fill="#000000" transform="translate(1211,1071)"/>
<path d="M0 0 C2 1 2 1 2 1 Z " fill="#000000" transform="translate(929,1071)"/>
<path d="M0 0 C2 1 2 1 2 1 Z " fill="#000000" transform="translate(1213,1070)"/>
<path d="M0 0 C2 1 2 1 2 1 Z " fill="#000000" transform="translate(927,1070)"/>
<path d="M0 0 C2 1 2 1 2 1 Z " fill="#000000" transform="translate(925,1069)"/>
<path d="M0 0 C2 1 2 1 2 1 Z " fill="#000000" transform="translate(1216,1068)"/>
<path d="M0 0 C2 1 2 1 2 1 Z " fill="#000000" transform="translate(923,1068)"/>
<path d="M0 0 C2 1 2 1 2 1 Z " fill="#000000" transform="translate(921,1067)"/>
<path d="M0 0 C2 1 2 1 2 1 Z " fill="#000000" transform="translate(1219,1066)"/>
<path d="M0 0 C2 1 2 1 2 1 Z " fill="#000000" transform="translate(919,1066)"/>
<path d="M0 0 C2 1 2 1 2 1 Z " fill="#000000" transform="translate(1221,1065)"/>
<path d="M0 0 C2 1 2 1 2 1 Z " fill="#000000" transform="translate(1223,1064)"/>
<path d="M0 0 C2 1 2 1 2 1 Z " fill="#000000" transform="translate(916,1064)"/>
<path d="M0 0 C2 1 2 1 2 1 Z " fill="#000000" transform="translate(914,1063)"/>
<path d="M0 0 C2 1 2 1 2 1 Z " fill="#000000" transform="translate(1226,1062)"/>
<path d="M0 0 C2 1 2 1 2 1 Z " fill="#000000" transform="translate(1228,1061)"/>
<path d="M0 0 C2 1 2 1 2 1 Z " fill="#000000" transform="translate(911,1061)"/>
<path d="M0 0 C2 1 2 1 2 1 Z " fill="#000000" transform="translate(909,1060)"/>
<path d="M0 0 C2 1 2 1 2 1 Z " fill="#000000" transform="translate(1231,1059)"/>
<path d="M0 0 C2 1 2 1 2 1 Z " fill="#000000" transform="translate(906,1058)"/>
<path d="M0 0 C2 1 2 1 2 1 Z " fill="#000000" transform="translate(903,1056)"/>
<path d="M0 0 C2 1 2 1 2 1 Z " fill="#000000" transform="translate(1243,1051)"/>
<path d="M0 0 C2 1 2 1 2 1 Z " fill="#000000" transform="translate(1247,1048)"/>
<path d="M0 0 C2 1 2 1 2 1 Z " fill="#000000" transform="translate(1250,1046)"/>
<path d="" fill="#000000" transform="translate(0,0)"/>
<path d="" fill="#000000" transform="translate(0,0)"/>
<path d="" fill="#000000" transform="translate(0,0)"/>
<path d="" fill="#000000" transform="translate(0,0)"/>
<path d="" fill="#000000" transform="translate(0,0)"/>
<path d="" fill="#000000" transform="translate(0,0)"/>
<path d="" fill="#000000" transform="translate(0,0)"/>
<path d="" fill="#000000" transform="translate(0,0)"/>
<path d="" fill="#000000" transform="translate(0,0)"/>
<path d="" fill="#000000" transform="translate(0,0)"/>
<path d="" fill="#000000" transform="translate(0,0)"/>
<path d="" fill="#000000" transform="translate(0,0)"/>
<path d="" fill="#000000" transform="translate(0,0)"/>
<path d="" fill="#000000" transform="translate(0,0)"/>
<path d="" fill="#000000" transform="translate(0,0)"/>
<path d="" fill="#000000" transform="translate(0,0)"/>
<path d="" fill="#000000" transform="translate(0,0)"/>
<path d="" fill="#000000" transform="translate(0,0)"/>
<path d="" fill="#000000" transform="translate(0,0)"/>
<path d="" fill="#000000" transform="translate(0,0)"/>
<path d="" fill="#000000" transform="translate(0,0)"/>
<path d="" fill="#000000" transform="translate(0,0)"/>
<path d="" fill="#000000" transform="translate(0,0)"/>
<path d="M0 0 C2 1 2 1 2 1 Z " fill="#000000" transform="translate(1265,560)"/>
<path d="M0 0 C2 1 2 1 2 1 Z " fill="#000000" transform="translate(875,559)"/>
<path d="M0 0 C2 1 2 1 2 1 Z " fill="#000000" transform="translate(1259,555)"/>
<path d="M0 0 C2 1 2 1 2 1 Z " fill="#000000" transform="translate(885,551)"/>
<path d="M0 0 C2 1 2 1 2 1 Z " fill="#000000" transform="translate(1247,546)"/>
<path d="M0 0 C2 1 2 1 2 1 Z " fill="#000000" transform="translate(914,532)"/>
<path d="M0 0 C2 1 2 1 2 1 Z " fill="#000000" transform="translate(917,530)"/>
<path d="M0 0 C2 1 2 1 2 1 Z " fill="#000000" transform="translate(1220,529)"/>
<path d="M0 0 C2 1 2 1 2 1 Z " fill="#000000" transform="translate(919,529)"/>
<path d="M0 0 C2 1 2 1 2 1 Z " fill="#000000" transform="translate(1218,528)"/>
<path d="M0 0 C2 1 2 1 2 1 Z " fill="#000000" transform="translate(921,528)"/>
<path d="M0 0 C2 1 2 1 2 1 Z " fill="#000000" transform="translate(1216,527)"/>
<path d="M0 0 C2 1 2 1 2 1 Z " fill="#000000" transform="translate(923,527)"/>
<path d="M0 0 C2 1 2 1 2 1 Z " fill="#000000" transform="translate(1214,526)"/>
<path d="M0 0 C2 1 2 1 2 1 Z " fill="#000000" transform="translate(1212,525)"/>
<path d="M0 0 C2 1 2 1 2 1 Z " fill="#000000" transform="translate(926,525)"/>
<path d="M0 0 C2 1 2 1 2 1 Z " fill="#000000" transform="translate(1210,524)"/>
<path d="M0 0 C2 1 2 1 2 1 Z " fill="#000000" transform="translate(928,524)"/>
<path d="M0 0 C2 1 2 1 2 1 Z " fill="#000000" transform="translate(930,523)"/>
<path d="M0 0 C2 1 2 1 2 1 Z " fill="#000000" transform="translate(1207,522)"/>
<path d="M0 0 C2 1 2 1 2 1 Z " fill="#000000" transform="translate(932,522)"/>
<path d="M0 0 C2 1 2 1 2 1 Z " fill="#000000" transform="translate(934,521)"/>
<path d="M0 0 C2 1 2 1 2 1 Z " fill="#000000" transform="translate(1202,520)"/>
<path d="M0 0 C2 1 2 1 2 1 Z " fill="#000000" transform="translate(936,520)"/>
<path d="M0 0 C2 1 2 1 2 1 Z " fill="#000000" transform="translate(1200,519)"/>
<path d="M0 0 C2 1 2 1 2 1 Z " fill="#000000" transform="translate(1198,518)"/>
<path d="M0 0 C2 1 2 1 2 1 Z " fill="#000000" transform="translate(1196,517)"/>
<path d="M0 0 C2 1 2 1 2 1 Z " fill="#000000" transform="translate(945,516)"/>
<path d="M0 0 C2 1 2 1 2 1 Z " fill="#000000" transform="translate(1189,514)"/>
<path d="M0 0 C2 1 2 1 2 1 Z " fill="#000000" transform="translate(951,513)"/>
<path d="M0 0 C2 1 2 1 2 1 Z " fill="#000000" transform="translate(953,512)"/>
<path d="M0 0 C2 1 2 1 2 1 Z " fill="#000000" transform="translate(958,510)"/>
<path d="M0 0 C2 1 2 1 2 1 Z " fill="#000000" transform="translate(1178,509)"/>
<path d="M0 0 C2 1 2 1 2 1 Z " fill="#000000" transform="translate(1175,508)"/>
<path d="M0 0 C2 1 2 1 2 1 Z " fill="#000000" transform="translate(970,506)"/>
<path d="M0 0 C2 1 2 1 2 1 Z " fill="#000000" transform="translate(1163,504)"/>
<path d="" fill="#000000" transform="translate(0,0)"/>
<path d="" fill="#000000" transform="translate(0,0)"/>
<path d="" fill="#000000" transform="translate(0,0)"/>
<path d="" fill="#000000" transform="translate(0,0)"/>
<path d="" fill="#000000" transform="translate(0,0)"/>
<path d="" fill="#000000" transform="translate(0,0)"/>
<path d="" fill="#000000" transform="translate(0,0)"/>
<path d="" fill="#000000" transform="translate(0,0)"/>
<path d="" fill="#000000" transform="translate(0,0)"/>
<path d="" fill="#000000" transform="translate(0,0)"/>
<path d="" fill="#000000" transform="translate(0,0)"/>
<path d="" fill="#000000" transform="translate(0,0)"/>
<path d="" fill="#000000" transform="translate(0,0)"/>
<path d="" fill="#000000" transform="translate(0,0)"/>
<path d="" fill="#000000" transform="translate(0,0)"/>
<path d="" fill="#000000" transform="translate(0,0)"/>
<path d="" fill="#000000" transform="translate(0,0)"/>
<path d="" fill="#000000" transform="translate(0,0)"/>
<path d="" fill="#000000" transform="translate(0,0)"/>
<path d="" fill="#000000" transform="translate(0,0)"/>
<path d="" fill="#000000" transform="translate(0,0)"/>
<path d="" fill="#000000" transform="translate(0,0)"/>
<path d="" fill="#000000" transform="translate(0,0)"/>
<path d="" fill="#000000" transform="translate(0,0)"/>
<path d="" fill="#000000" transform="translate(0,0)"/>
<path d="" fill="#000000" transform="translate(0,0)"/>
<path d="" fill="#000000" transform="translate(0,0)"/>
<path d="" fill="#000000" transform="translate(0,0)"/>
<path d="" fill="#000000" transform="translate(0,0)"/>
<path d="" fill="#000000" transform="translate(0,0)"/>
<path d="" fill="#000000" transform="translate(0,0)"/>
<path d="" fill="#000000" transform="translate(0,0)"/>
<path d="" fill="#000000" transform="translate(0,0)"/>
<path d="" fill="#000000" transform="translate(0,0)"/>
<path d="" fill="#000000" transform="translate(0,0)"/>
<path d="" fill="#000000" transform="translate(0,0)"/>
<path d="" fill="#000000" transform="translate(0,0)"/>
<path d="" fill="#000000" transform="translate(0,0)"/>
<path d="" fill="#000000" transform="translate(0,0)"/>
<path d="" fill="#000000" transform="translate(0,0)"/>
<path d="" fill="#000000" transform="translate(0,0)"/>
<path d="" fill="#000000" transform="translate(0,0)"/>
<path d="" fill="#000000" transform="translate(0,0)"/>
<path d="" fill="#000000" transform="translate(0,0)"/>
<path d="" fill="#000000" transform="translate(0,0)"/>
<path d="" fill="#000000" transform="translate(0,0)"/>
<path d="" fill="#000000" transform="translate(0,0)"/>
<path d="" fill="#000000" transform="translate(0,0)"/>
<path d="" fill="#000000" transform="translate(0,0)"/>
<path d="" fill="#000000" transform="translate(0,0)"/>
<path d="" fill="#000000" transform="translate(0,0)"/>
<path d="" fill="#000000" transform="translate(0,0)"/>
<path d="" fill="#000000" transform="translate(0,0)"/>
<path d="" fill="#000000" transform="translate(0,0)"/>
<path d="" fill="#000000" transform="translate(0,0)"/>
<path d="" fill="#000000" transform="translate(0,0)"/>
<path d="" fill="#000000" transform="translate(0,0)"/>
<path d="" fill="#000000" transform="translate(0,0)"/>
<path d="" fill="#000000" transform="translate(0,0)"/>
<path d="" fill="#000000" transform="translate(0,0)"/>
<path d="" fill="#000000" transform="translate(0,0)"/>
<path d="" fill="#000000" transform="translate(0,0)"/>
<path d="" fill="#000000" transform="translate(0,0)"/>
<path d="" fill="#000000" transform="translate(0,0)"/>
<path d="" fill="#000000" transform="translate(0,0)"/>
<path d="" fill="#000000" transform="translate(0,0)"/>
<path d="" fill="#000000" transform="translate(0,0)"/>
<path d="" fill="#000000" transform="translate(0,0)"/>
<path d="" fill="#000000" transform="translate(0,0)"/>
<path d="" fill="#000000" transform="translate(0,0)"/>
<path d="" fill="#000000" transform="translate(0,0)"/>
<path d="" fill="#000000" transform="translate(0,0)"/>
<path d="" fill="#000000" transform="translate(0,0)"/>
<path d="" fill="#000000" transform="translate(0,0)"/>
<path d="" fill="#000000" transform="translate(0,0)"/>
<path d="" fill="#000000" transform="translate(0,0)"/>
<path d="" fill="#000000" transform="translate(0,0)"/>
<path d="" fill="#000000" transform="translate(0,0)"/>
<path d="" fill="#000000" transform="translate(0,0)"/>
<path d="" fill="#000000" transform="translate(0,0)"/>
<path d="" fill="#000000" transform="translate(0,0)"/>
<path d="" fill="#000000" transform="translate(0,0)"/>
<path d="" fill="#000000" transform="translate(0,0)"/>
<path d="" fill="#000000" transform="translate(0,0)"/>
<path d="" fill="#000000" transform="translate(0,0)"/>
<path d="" fill="#000000" transform="translate(0,0)"/>
<path d="" fill="#000000" transform="translate(0,0)"/>
<path d="" fill="#000000" transform="translate(0,0)"/>
<path d="" fill="#000000" transform="translate(0,0)"/>
<path d="" fill="#000000" transform="translate(0,0)"/>
<path d="" fill="#000000" transform="translate(0,0)"/>
<path d="" fill="#000000" transform="translate(0,0)"/>
<path d="" fill="#000000" transform="translate(0,0)"/>
<path d="" fill="#000000" transform="translate(0,0)"/>
<path d="" fill="#000000" transform="translate(0,0)"/>
<path d="" fill="#000000" transform="translate(0,0)"/>
<path d="" fill="#000000" transform="translate(0,0)"/>
<path d="" fill="#000000" transform="translate(0,0)"/>
<path d="" fill="#000000" transform="translate(0,0)"/>
<path d="" fill="#000000" transform="translate(0,0)"/>
<path d="" fill="#000000" transform="translate(0,0)"/>
<path d="" fill="#000000" transform="translate(0,0)"/>
<path d="" fill="#000000" transform="translate(0,0)"/>
<path d="" fill="#000000" transform="translate(0,0)"/>
<path d="" fill="#000000" transform="translate(0,0)"/>
<path d="" fill="#000000" transform="translate(0,0)"/>
<path d="" fill="#000000" transform="translate(0,0)"/>
<path d="" fill="#000000" transform="translate(0,0)"/>
<path d="" fill="#000000" transform="translate(0,0)"/>
<path d="" fill="#000000" transform="translate(0,0)"/>
<path d="" fill="#000000" transform="translate(0,0)"/>
<path d="" fill="#000000" transform="translate(0,0)"/>
<path d="" fill="#000000" transform="translate(0,0)"/>
<path d="" fill="#000000" transform="translate(0,0)"/>
<path d="" fill="#000000" transform="translate(0,0)"/>
<path d="" fill="#000000" transform="translate(0,0)"/>
<path d="" fill="#000000" transform="translate(0,0)"/>
<path d="" fill="#000000" transform="translate(0,0)"/>
<path d="" fill="#000000" transform="translate(0,0)"/>
<path d="" fill="#000000" transform="translate(0,0)"/>
<path d="" fill="#000000" transform="translate(0,0)"/>
<path d="" fill="#000000" transform="translate(0,0)"/>
<path d="" fill="#000000" transform="translate(0,0)"/>
<path d="" fill="#000000" transform="translate(0,0)"/>
<path d="" fill="#000000" transform="translate(0,0)"/>
<path d="" fill="#000000" transform="translate(0,0)"/>
<path d="" fill="#000000" transform="translate(0,0)"/>
<path d="" fill="#000000" transform="translate(0,0)"/>
<path d="" fill="#000000" transform="translate(0,0)"/>
<path d="" fill="#000000" transform="translate(0,0)"/>
<path d="" fill="#000000" transform="translate(0,0)"/>
<path d="" fill="#000000" transform="translate(0,0)"/>
<path d="" fill="#000000" transform="translate(0,0)"/>
<path d="" fill="#000000" transform="translate(0,0)"/>
<path d="" fill="#000000" transform="translate(0,0)"/>
<path d="" fill="#000000" transform="translate(0,0)"/>
<path d="" fill="#000000" transform="translate(0,0)"/>
<path d="" fill="#000000" transform="translate(0,0)"/>
<path d="" fill="#000000" transform="translate(0,0)"/>
<path d="" fill="#000000" transform="translate(0,0)"/>
<path d="" fill="#000000" transform="translate(0,0)"/>
<path d="" fill="#000000" transform="translate(0,0)"/>
<path d="" fill="#000000" transform="translate(0,0)"/>
<path d="" fill="#000000" transform="translate(0,0)"/>
<path d="" fill="#000000" transform="translate(0,0)"/>
<path d="" fill="#000000" transform="translate(0,0)"/>
<path d="" fill="#000000" transform="translate(0,0)"/>
<path d="" fill="#000000" transform="translate(0,0)"/>
<path d="" fill="#000000" transform="translate(0,0)"/>
<path d="" fill="#000000" transform="translate(0,0)"/>
<path d="" fill="#000000" transform="translate(0,0)"/>
<path d="" fill="#000000" transform="translate(0,0)"/>
<path d="" fill="#000000" transform="translate(0,0)"/>
<path d="" fill="#000000" transform="translate(0,0)"/>
<path d="" fill="#000000" transform="translate(0,0)"/>
<path d="" fill="#000000" transform="translate(0,0)"/>
<path d="" fill="#000000" transform="translate(0,0)"/>
<path d="" fill="#000000" transform="translate(0,0)"/>
<path d="" fill="#000000" transform="translate(0,0)"/>
<path d="" fill="#000000" transform="translate(0,0)"/>
<path d="" fill="#000000" transform="translate(0,0)"/>
<path d="" fill="#000000" transform="translate(0,0)"/>
<path d="" fill="#000000" transform="translate(0,0)"/>
<path d="" fill="#000000" transform="translate(0,0)"/>
<path d="" fill="#000000" transform="translate(0,0)"/>
<path d="" fill="#000000" transform="translate(0,0)"/>
<path d="" fill="#000000" transform="translate(0,0)"/>
<path d="" fill="#000000" transform="translate(0,0)"/>
<path d="" fill="#000000" transform="translate(0,0)"/>
<path d="" fill="#000000" transform="translate(0,0)"/>
<path d="" fill="#000000" transform="translate(0,0)"/>
<path d="" fill="#000000" transform="translate(0,0)"/>
<path d="" fill="#000000" transform="translate(0,0)"/>
<path d="" fill="#000000" transform="translate(0,0)"/>
<path d="" fill="#000000" transform="translate(0,0)"/>
<path d="" fill="#000000" transform="translate(0,0)"/>
<path d="" fill="#000000" transform="translate(0,0)"/>
<path d="" fill="#000000" transform="translate(0,0)"/>
<path d="" fill="#000000" transform="translate(0,0)"/>
<path d="" fill="#000000" transform="translate(0,0)"/>
<path d="" fill="#000000" transform="translate(0,0)"/>
<path d="" fill="#000000" transform="translate(0,0)"/>
<path d="" fill="#000000" transform="translate(0,0)"/>
<path d="" fill="#000000" transform="translate(0,0)"/>
<path d="" fill="#000000" transform="translate(0,0)"/>
<path d="" fill="#000000" transform="translate(0,0)"/>
<path d="" fill="#000000" transform="translate(0,0)"/>
<path d="" fill="#000000" transform="translate(0,0)"/>
<path d="" fill="#000000" transform="translate(0,0)"/>
<path d="" fill="#000000" transform="translate(0,0)"/>
<path d="" fill="#000000" transform="translate(0,0)"/>
<path d="" fill="#000000" transform="translate(0,0)"/>
</svg>
